# xmcd
#
# Track frame offsets:
# 150
# 15447
# 27387
# 52325
# 72352
# 88653
# 115066
# 146286
# 159044
# 187838
# 210278
# 239394
# 264414
# 290032
# 307155
#
# Disc length: 4343 seconds
#
#
# Revision: 1
# Processed by: cddbd v1.5.1PL0 Copyright (c) Steve Scherf et al.
# Submitted via: FreeRIP 2.941 
#
DISCID=cc10f50f
DTITLE=Various Artist - RcaVictor Goes Funk
DYEAR=2002
DGENRE=Funk
TTITLE0=Gil Scott-Heron - Introduction... The revolution will not be televised
TTITLE1=Lonnie Liston Smith - Peace and Love
TTITLE2=The Headhunters - Straight from the Gate
TTITLE3=Leon Thomas - Let's go down to lucy
TTITLE4=Gil Scott-Heron - Lady day and John coltrane
TTITLE5=Lonnie Liston Smith - Summer Days
TTITLE6=Lonnie Liston Smith - Beautiful Woman
TTITLE7=Gil Scott-Heron - The King Alfred Plan
TTITLE8=Oliver Wilson - 125th st. and 7th Avenue
TTITLE9=Leon Thomas - Sweet Little Angle
TTITLE10=The HeadHunters - If you've got it you'll get it
TTITLE11=Lonnie Liston Smith - Rejuvenation
TTITLE12=Leon Thomas - Echoes
TTITLE13=Joe Turner, T-Bone Walker and Otis Spann - Here I am broken Hearted
TTITLE14=Eddie Cleanhead Vinson - Cleanhead Blues
EXTD=
EXTT0=
EXTT1=
EXTT2=
EXTT3=
EXTT4=
EXTT5=
EXTT6=
EXTT7=
EXTT8=
EXTT9=
EXTT10=
EXTT11=
EXTT12=
EXTT13=
EXTT14=
PLAYORDER=
